<svg xmlns="http://www.w3.org/2000/svg" viewBox="0 0 274.14 274.14"><defs><style>.cls-1{fill:none;stroke:#d0d130;stroke-miterlimit:10;stroke-width:15px;}.cls-2{fill:#fff;}</style></defs><title>Fichier 8</title><g id="Calque_2" data-name="Calque 2"><g id="Calque_1-2" data-name="Calque 1"><rect class="cls-1" x="7.5" y="7.5" width="259.14" height="259.14"/><path class="cls-2" d="M100.83,120.57a1.65,1.65,0,0,1,1.75,1.75v15.14a1.65,1.65,0,0,1-1.75,1.75H54.37a1.65,1.65,0,0,1-1.75-1.75v-78a1.65,1.65,0,0,1,1.75-1.75h18a1.65,1.65,0,0,1,1.75,1.75v61.13Z"/><path class="cls-2" d="M167.31,57.69a1.65,1.65,0,0,1,1.75,1.75v78a1.65,1.65,0,0,1-1.75,1.75H147.05a2.65,2.65,0,0,1-2.33-1.4l-16.19-31.9L122.6,90.76H121l2.1,15.14v31.56a1.65,1.65,0,0,1-1.75,1.75h-18a1.65,1.65,0,0,1-1.75-1.75v-78a1.65,1.65,0,0,1,1.75-1.75h20.26a2.65,2.65,0,0,1,2.33,1.4L142,91,148,106.13h1.63L147.52,91V59.43a1.65,1.65,0,0,1,1.75-1.75Z"/></g></g></svg>